<svg aria-hidden="true" style="position: absolute; width: 0; height: 0; overflow: hidden;" version="1.1" xmlns="http://www.w3.org/2000/svg" xmlns:xlink="http://www.w3.org/1999/xlink">
<defs>
<symbol id="icon-upload" viewBox="0 0 15 16">
<path  opacity="0.3" d="M6.168 5.49h0.734v3.765h1.255v-3.765h0.734l-1.362-1.362-1.362 1.362z"></path>
<path  d="M7.529 2.353l-4.392 4.392h2.51v3.765h3.765v-3.765h2.51l-4.392-4.392zM8.157 5.49v3.765h-1.255v-3.765h-0.734l1.362-1.362 1.362 1.362h-0.734zM3.137 11.765h8.784v1.255h-8.784v-1.255z"></path>
</symbol>
<symbol id="icon-arrow_drop_down" viewBox="0 0 16 16">
<path  d="M4.667 6.667l3.333 3.333 3.333-3.333h-6.667z"></path>
</symbol>
<symbol id="icon-arrow_forward" viewBox="0 0 16 16">
<path  d="M4.327 13.42l1.18 1.18 6.6-6.6-6.6-6.6-1.18 1.18 5.42 5.42-5.42 5.42z"></path>
</symbol>
<symbol id="icon-arrow_back" viewBox="0 0 16 16">
<path  d="M11.673 2.58l-1.187-1.18-6.593 6.6 6.6 6.6 1.18-1.18-5.42-5.42 5.42-5.42z"></path>
</symbol>
<symbol id="icon-clear" viewBox="0 0 17 16">
<path  d="M13.167 4.273l-0.94-0.94-3.727 3.727-3.727-3.727-0.94 0.94 3.727 3.727-3.727 3.727 0.94 0.94 3.727-3.727 3.727 3.727 0.94-0.94-3.727-3.727 3.727-3.727z"></path>
</symbol>
<symbol id="icon-search" viewBox="0 0 16 16">
<path  d="M10.333 9.333h-0.527l-0.187-0.18c0.653-0.76 1.047-1.747 1.047-2.82 0-2.393-1.94-4.333-4.333-4.333s-4.333 1.94-4.333 4.333c0 2.393 1.94 4.333 4.333 4.333 1.073 0 2.060-0.393 2.82-1.047l0.18 0.187v0.527l3.333 3.327 0.993-0.993-3.327-3.333zM6.333 9.333c-1.66 0-3-1.34-3-3s1.34-3 3-3c1.66 0 3 1.34 3 3s-1.34 3-3 3z"></path>
</symbol>
<symbol id="icon-calendar" viewBox="0 0 15 16">
<path  d="M5.647 6.745h-1.255v1.255h1.255v-1.255zM8.157 6.745h-1.255v1.255h1.255v-1.255zM10.667 6.745h-1.255v1.255h1.255v-1.255zM11.922 2.353h-0.627v-1.255h-1.255v1.255h-5.020v-1.255h-1.255v1.255h-0.627c-0.333 0-0.652 0.132-0.887 0.368s-0.368 0.555-0.368 0.887v8.784c0 0.333 0.132 0.652 0.368 0.887s0.555 0.368 0.887 0.368h8.784c0.333 0 0.652-0.132 0.887-0.368s0.368-0.555 0.368-0.887v-8.784c0-0.333-0.132-0.652-0.368-0.887s-0.555-0.368-0.887-0.368zM11.922 12.392h-8.784v-6.902h8.784v6.902z"></path>
</symbol>
<symbol id="icon-cached" viewBox="0 0 15 16">
<path d="M11.922 5.49l-2.51 2.51h1.882c0 2.077-1.688 3.765-3.765 3.765-0.634 0-1.236-0.157-1.757-0.439l-0.916 0.916c0.772 0.489 1.688 0.778 2.673 0.778 2.773 0 5.020-2.246 5.020-5.020h1.882l-2.51-2.51zM3.765 8c0-2.077 1.688-3.765 3.765-3.765 0.634 0 1.236 0.157 1.757 0.439l0.916-0.916c-0.772-0.489-1.688-0.778-2.673-0.778-2.773 0-5.020 2.246-5.020 5.020h-1.882l2.51 2.51 2.51-2.51h-1.882z"></path>
</symbol>
<symbol id="icon-arrow_drop_up" viewBox="0 0 16 16">
<path  d="M4.667 9.333l3.333-3.333 3.333 3.333h-6.667z"></path>
</symbol>
<symbol id="icon-create" viewBox="0 0 16 16">
<path  opacity="0.3" d="M3.333 12.053v0.613h0.613l6.040-6.040-0.613-0.613-6.040 6.040z"></path>
<path  d="M2 11.5v2.5h2.5l7.373-7.373-2.5-2.5-7.373 7.373zM3.947 12.667h-0.613v-0.613l6.040-6.040 0.613 0.613-6.040 6.040zM13.807 3.753l-1.56-1.56c-0.133-0.133-0.3-0.193-0.473-0.193s-0.34 0.067-0.467 0.193l-1.22 1.22 2.5 2.5 1.22-1.22c0.26-0.26 0.26-0.68 0-0.94z"></path>
</symbol>
<symbol id="icon-trending_up" viewBox="0 0 16 16">
<path d="M10.667 4l1.527 1.527-3.253 3.253-2.667-2.667-4.94 4.947 0.94 0.94 4-4 2.667 2.667 4.2-4.193 1.527 1.527v-4h-4z"></path>
</symbol>
<symbol id="icon-archive" viewBox="0 0 15 16">
<path  opacity="0.3" d="M3.137 12.392h8.784v-6.902h-8.784v6.902zM6.62 8.627v-1.882h1.826v1.882h1.594l-2.51 2.51-2.51-2.51h1.6z"></path>
<path  d="M10.039 8.627h-1.6v-1.882h-1.82v1.882h-1.6l2.51 2.51 2.51-2.51zM12.888 3.752l-0.872-1.054c-0.169-0.213-0.427-0.345-0.722-0.345h-7.529c-0.295 0-0.552 0.132-0.728 0.345l-0.866 1.054c-0.182 0.213-0.289 0.496-0.289 0.797v7.843c0 0.69 0.565 1.255 1.255 1.255h8.784c0.69 0 1.255-0.565 1.255-1.255v-7.843c0-0.301-0.107-0.584-0.289-0.797zM3.915 3.608h7.228l0.508 0.609h-8.238l0.502-0.609zM11.922 12.392h-8.784v-6.902h8.784v6.902z"></path>
</symbol>
<symbol id="icon-unarchive" viewBox="0 0 16 16">
<path opacity="0.3" d="M3.333 12.667h9.333v-7.333h-9.333v7.333zM8 6.667l2.667 2.667h-1.7v2h-1.94v-2h-1.693l2.667-2.667z"></path>
<path  d="M13.693 3.487l-0.927-1.12c-0.18-0.227-0.453-0.367-0.767-0.367h-8c-0.313 0-0.587 0.14-0.773 0.367l-0.92 1.12c-0.193 0.227-0.307 0.527-0.307 0.847v8.333c0 0.733 0.6 1.333 1.333 1.333h9.333c0.733 0 1.333-0.6 1.333-1.333v-8.333c0-0.32-0.113-0.62-0.307-0.847zM4.16 3.333h7.68l0.553 0.667h-8.78l0.547-0.667zM12.667 12.667h-9.333v-7.333h9.333v7.333zM7.033 11.333h1.933v-2h1.7l-2.667-2.667-2.667 2.667h1.7v2z"></path>
</symbol>
</defs>
</svg>
