<svg aria-hidden="true" style="position: absolute; width: 0; height: 0; overflow: hidden;" version="1.1" xmlns="http://www.w3.org/2000/svg" xmlns:xlink="http://www.w3.org/1999/xlink">
<defs>
<symbol id="icon-upload" viewBox="0 0 15 16">
<path fill="#c0c0c0" style="fill: var(--color1, #c0c0c0)" opacity="0.3" d="M6.168 5.49h0.734v3.765h1.255v-3.765h0.734l-1.362-1.362-1.362 1.362z"></path>
<path fill="#c0c0c0" style="fill: var(--color1, #c0c0c0)" d="M7.529 2.353l-4.392 4.392h2.51v3.765h3.765v-3.765h2.51l-4.392-4.392zM8.157 5.49v3.765h-1.255v-3.765h-0.734l1.362-1.362 1.362 1.362h-0.734zM3.137 11.765h8.784v1.255h-8.784v-1.255z"></path>
</symbol>
<symbol id="icon-arrow_drop_down" viewBox="0 0 16 16">
<path  d="M4.667 6.667l3.333 3.333 3.333-3.333h-6.667z"></path>
</symbol>
<symbol id="icon-arrow_forward" viewBox="0 0 16 16">
<path fill="#5b5b5b" style="fill: var(--color3, #5b5b5b)" d="M4.327 13.42l1.18 1.18 6.6-6.6-6.6-6.6-1.18 1.18 5.42 5.42-5.42 5.42z"></path>
</symbol>
<symbol id="icon-arrow_back" viewBox="0 0 16 16">
<path fill="#5b5b5b" style="fill: var(--color3, #5b5b5b)" d="M11.673 2.58l-1.187-1.18-6.593 6.6 6.6 6.6 1.18-1.18-5.42-5.42 5.42-5.42z"></path>
</symbol>
<symbol id="icon-clear" viewBox="0 0 17 16">
<path fill="#c0c0c0" style="fill: var(--color1, #c0c0c0)" d="M13.167 4.273l-0.94-0.94-3.727 3.727-3.727-3.727-0.94 0.94 3.727 3.727-3.727 3.727 0.94 0.94 3.727-3.727 3.727 3.727 0.94-0.94-3.727-3.727 3.727-3.727z"></path>
</symbol>
<symbol id="icon-search" viewBox="0 0 16 16">
<path fill="#c0c0c0" style="fill: var(--color1, #c0c0c0)" d="M10.333 9.333h-0.527l-0.187-0.18c0.653-0.76 1.047-1.747 1.047-2.82 0-2.393-1.94-4.333-4.333-4.333s-4.333 1.94-4.333 4.333c0 2.393 1.94 4.333 4.333 4.333 1.073 0 2.060-0.393 2.82-1.047l0.18 0.187v0.527l3.333 3.327 0.993-0.993-3.327-3.333zM6.333 9.333c-1.66 0-3-1.34-3-3s1.34-3 3-3c1.66 0 3 1.34 3 3s-1.34 3-3 3z"></path>
</symbol>
</defs>
</svg>
